<svg xmlns="http://www.w3.org/2000/svg" viewBox="0 0 900 700" fill="none"><defs><linearGradient id="a" x1="0" x2="1" y1="0" y2="1"><stop offset="0%" stop-color="#7ED6C1"/><stop offset="100%" stop-color="#F7E8A4"/></linearGradient><linearGradient id="b" x1="0" x2="1" y1="0" y2="1"><stop offset="0%" stop-color="#fff"/><stop offset="100%" stop-color="#F3F7F8"/></linearGradient></defs><rect width="900" height="700" rx="40" fill="#EFF5F7"/><circle cx="210" cy="170" r="95" fill="url(#a)" opacity="0.35"/><circle cx="720" cy="140" r="60" fill="#F7E8A4" opacity="0.4"/><path d="M220 310c78-40 164-24 220 30s62 138 24 198c-38 60-106 90-178 86-72-4-142-52-168-118-26-66-8-141 15-196 12-28 35-45 71-50z" fill="#fff"/><path d="M227 316c67-34 148-20 198 27 50 47 56 116 22 173-34 57-96 84-160 88-64 4-127-22-161-68-34-46-37-112-22-163 14-49 56-79 123-97z" fill="#D0E5DD"/><path d="M482 287c28-23 67-24 94-2 28 22 33 61 13 90-20 29-54 43-86 35-32-8-53-40-54-73-1-33 12-61 33-84z" fill="#fff"/><path d="M365 438c50-22 110-14 154 22 44 36 57 94 34 145-23 51-75 84-131 87-56 3-110-24-141-68-31-44-34-102-20-149 13-44 50-72 104-87z" fill="#fff"/><path d="M510 206c21-16 48-15 67 2 19 17 21 44 5 63-16 19-42 25-63 11-21-14-29-39-19-60 5-11 14-20 20-16z" fill="#fff"/><path d="M300 500c22 5 44-5 55-24 11-19 12-44-4-60-16-15-42-15-60-2-18 13-24 34-20 55 2 12 8 24 15 31z" fill="#fff"/><path d="M510 200c-12 4-18 15-20 28-1 13 3 26 10 36 7 10 19 18 31 18 12 0 24-8 31-18 8-10 12-23 10-36-2-13-9-24-20-28-16-5-35-5-42 0z" fill="#D0E5DD"/><path d="M473 320c16 9 36 7 49-6 13-13 14-34 3-48-11-14-32-18-48-7-17 11-21 34-4 61z" fill="#2F3E53"/><path d="M455 210c8-4 18-3 26 3 8 6 10 15 7 23-3 8-10 13-18 13-8 0-16-5-18-13-2-8 0-17 3-23 1-2 3-4 2-3z" fill="#2F3E53"/><path d="M270 248c27-8 57-11 86-3 29 8 51 27 63 52 12 25 9 52-8 74-17 22-47 32-76 26-29-6-55-29-64-57-9-28-3-60  -1-92z" fill="#fff" opacity="0.9"/><path d="M262 236c-8 29-4 60 10 87 14 27 39 49 68 55 29 6 60-4 82-24 22-20 33-48 30-77-3-29-21-56-46-71-26-15-58-19-88-11-18 5-34 15-46 30z" fill="url(#b)"/></svg>
